# xmcd
#
# Track frame offsets: 
#        183
#        19133
#        37793
#        59660
#        76405
#        94083
#        113445
#        135965
#        154438
#        170045
#        191245
#        208503
#
# Disc length: 3046 seconds
#
# Revision: 0
# Processed by: cddbd v1.5.1PL0 Copyright (c) Steve Scherf et al.
# Submitted via: ExactAudioCopy v0.95a5
#
DISCID=9c0be40c
DTITLE=蔡琴 - 火舞
DYEAR=1988
DGENRE=Blues
TTITLE0=火舞
TTITLE1=金色樓梯
TTITLE2=傷心小站
TTITLE3=油麻菜籽
TTITLE4=情鎖
TTITLE5=蝶衣
TTITLE6=最後一夜
TTITLE7=讀你
TTITLE8=天天天天
TTITLE9=我和我自己的影子
TTITLE10=情願孤獨
TTITLE11=時間的河
EXTD=
EXTT0=
EXTT1=
EXTT2=
EXTT3=
EXTT4=
EXTT5=
EXTT6=
EXTT7=
EXTT8=
EXTT9=
EXTT10=
EXTT11=
PLAYORDER=
